<?xml version="1.0" standalone="no"?>
<!DOCTYPE svg PUBLIC "-//W3C//DTD SVG 20010904//EN"
 "http://www.w3.org/TR/2001/REC-SVG-20010904/DTD/svg10.dtd">
<svg version="1.0" xmlns="http://www.w3.org/2000/svg"
 width="208.000000pt" height="201.000000pt" viewBox="0 0 208.000000 201.000000"
 preserveAspectRatio="xMidYMid meet">

<g transform="translate(0.000000,201.000000) scale(0.100000,-0.100000)"
fill="#000000" stroke="none">
<path d="M356 1814 c-34 -11 -64 -31 -102 -68 -87 -88 -84 -58 -84 -810 0
-412 4 -664 10 -688 20 -70 70 -130 138 -165 l64 -33 194 0 194 0 0 68 0 69
188 6 c103 4 315 7 471 7 275 0 284 1 323 22 22 13 51 41 64 64 l24 41 0 606
c0 405 -4 615 -11 634 -15 40 -48 73 -94 94 -37 17 -74 19 -502 19 l-463 0 0
75 0 75 -182 -1 c-133 0 -196 -5 -232 -15z m814 -611 c0 -7 -6 -13 -14 -13 -7
0 -22 -11 -32 -25 -10 -14 -24 -25 -30 -25 -6 0 -14 -18 -18 -40 -3 -22 -11
-40 -16 -40 -8 0 -36 53 -52 101 -3 8 -24 21 -47 29 -53 17 -42 33 19 25 33
-5 56 -2 75 7 31 17 115 2 115 -19z m95 -72 c8 -15 -33 -33 -56 -26 -23 8 -15
20 16 28 32 8 34 7 40 -2z m-336 -15 c24 -13 24 -14 -18 -21 -47 -8 -79 8 -51
25 20 13 40 12 69 -4z m165 -247 c-7 -12 -44 -12 -44 0 0 5 6 11 13 14 17 6
38 -3 31 -14z m-37 -95 c-3 -3 -12 -4 -19 -1 -8 3 -5 6 6 6 11 1 17 -2 13 -5z
m40 0 c-3 -3 -12 -4 -19 -1 -8 3 -5 6 6 6 11 1 17 -2 13 -5z m-27 -84 c0 -5
-7 -10 -15 -10 -8 0 -15 5 -15 10 0 6 7 10 15 10 8 0 15 -4 15 -10z m330 -270
c8 -14 8 -26 0 -40 -21 -39 -45 -18 -35 30 8 35 20 38 35 10z m-195 -180 c4
-6 -14 -10 -47 -9 -49 2 -50 2 -18 9 52 11 58 11 65 0z"/>
</g>
</svg>
